<?xml version="1.0" standalone="no"?>
<svg width="567" height="324" viewBox="0 0 567 324" xmlns="http://www.w3.org/2000/svg">
<title>
/home/local1/NSRL13A/NSRL13A-build/EdepWater2GeVwide.svg
</title>
<desc>
Creator: ROOT Version 5.34/09
CreationDate: Mon Apr 14 11:32:09 2014</desc>
<defs>
</defs>
<rect x="0" y="0" width="567" height="324" fill="white"/>
<rect x="56" y="32" width="454" height="260" fill="white"/>
<rect x="56" y="32" width="454" height="260" fill="none" stroke="black"/>
<rect x="56" y="32" width="454" height="260" fill="white"/>
<rect x="56" y="32" width="454" height="260" fill="none" stroke="black"/>
<path d="M56,292h 1v -197h 1v 22h 1v 19h 1v 26h 1v 6h 1v 8h 1v -1h 1v 5h 1v -9h 1v 1h 1v 5h 1v -2h 1v 2h 1v 3v -3h 1v 1h 1v -7h 1v 8h 1v -5h 1v -80h 1v -35h 1v -12h 1v 1h 1v 6h 1v 18h 1v 10h 1v 9h 1v 11h 1v 8h 1v 17h 1v 6h 1v 6h 1v 3h 1v 2h 1v 2h 1v
 1h 2v 1h 1v 3h 1v 2h 1v -2h 1v 1h 1v -1h 1v 1h 1v 2h 1v -2h 1v 1h 1v -2h 1v 6h 1v -3v 1h 1v 2h 2v 2h 1v 1h 1v -1h 1v 1h 1v 2h 1v -2h 1v -1h 1v 5v -5h 1v 1h 1v 6h 1v -7h 1v 5h 1v 3v -2h 1v 1h 2v 1h 2v -5h 1v 11h 1v -7h 1v 3h 1v 3h 1v -6v 5h 1v 2h 1v
 -4h 1v 2h 1v 2h 1v -4v 2h 2v 2h 3v -4v 3h 1v 4h 1v -5h 1v 8h 1v -9h 1v 8v -3h 1v 2h 1v -4h 1v 6h 1v -1h 1v 3h 1v 1h 1v -5h 1v -1h 1v 4h 1v 2v -6h 1v 8h 1v -5h 1v 9h 1v -6h 1v -1v 7h 1v 2h 1v 2h 1v -9h 1v -2h 1v 7h 1v 4h 1v -4h 1v 2h 1v -7h 1v 5v -2h
 1v 6h 1v -6h 1v 10h 1v -11h 1v 8v -4h 1v 7h 1v -13h 1v 3h 1v 6h 1v 12h 1v -6h 1v -5h 1v 1h 1v -6h 1v 9h 1v 8h 1v -6h 1v -4h 1v 1h 1v 2v -3h 1v 11h 1v -4h 1v -11h 1v 5h 1v -1v 9h 1v -2h 1v 5h 1v -6h 1v 8h 1v 5v -8h 1v 6h 1v -11h 1v -3h 1v 3h 1v 9v
 -6h 1v -3h 1v 17h 1v -4h 1v -4h 1v 2v -14h 1v 20h 1v -12h 1v -1h 1v -11h 1v 10h 1v 8h 1v -3h 2v -4h 1v 5v -1h 1v -2h 1v 2h 1v 1h 1v -3h 1v 18h 1v 12h 1v -23h 2v 23h 1v -21h 2v -4h 1v 8h 1v -6h 1v 4h 1v -8h 1v 6h 1v -2h 1v 2h 1v 16h 1v -9h 1v 19h 1v
 -19h 1v -9h 1v 6v -4h 1v 9h 1v 7h 1v 10h 1v -13h 1v 29v -29h 2v 3h 3v 5v -14h 1v -9h 1v 15h 1v -11h 1v 7h 1v 24v -17h 1v -12h 1v 17h 1v -8h 1v 3h 1v 26v -21h 1v -8h 1v 46h 1v -46h 1v 29h 1v -35v 35h 1v -21h 1v -12h 1v 24h 1v -12h 1v -5h 1v 26h 1v
 34h 1v -43h 1v -12h 1v -12v 12h 1v -8h 1v 46h 1v 17h 1v -55h 1v -8v 29h 1v -9h 1v 43h 1v -55h 1v 55h 1v -55h 1v 21h 1v 17h 1v -17h 1v -16h 2v -5h 1v 12h 1v 26h 1v 17h 1v -34h 1v -29h 1v 29h 1v -9h 1v -7h 1v 16h 1v 17h 2v -33h 1v 7h 1v 9h 3v 17h 1v
 17h 1v -34v 17h 2v -33h 1v 33h 2v 17v -17h 1v -33h 1v 33h 1v -17h 1v 34h 1v -50v 33h 2v -33h 1v 33h 1v 17h 1v -17h 1v -26h 2v 9h 1v 17h 1v -17h 1v 17h 1v 17h 3v -43v 26h 1v 17h 2v -17h 2v 17v -34h 1v 17h 1v -17h 1v 17h 1v 17h 1v -34h 1v 34h 1v -34h
 2v 34h 1v -34h 1v 34h 1v -17h 2v 17h 1v -17h 1v -17h 1v 34h 2v -34h 1v 17h 1v 17h 1v -17h 1v 17h 3v -17h 2v 17h 2v -17h 1v 17h 5v -17h 1v 17h 1v -17h 1v 17h 1v -17v 17h 3v -17h 1v 17h 1v -17v 17h 1v -17h 1v 17h 2v -34h 1v 34h 2v -17h 1v 17h 2v -17h
 1v 17h 1v -17h 2v 17h 11v -34h 1v 34h 1v -17h 1v 17h 7v -17v 17h 7v -17h 1v 17h 11v -17h 1v 17h 8v -17h 1v 17h 8v -17h 1v 17h 27v -17v 17h 20" fill="none" stroke="#000099"/>
<rect x="388" y="45" width="114" height="52" fill="white"/>
<path d="M388,97h 114" fill="none" stroke="black"/>
<path d="M502,97v -52" fill="none" stroke="black"/>
<path d="M502,45h -114" fill="none" stroke="black"/>
<path d="M388,45v 52" fill="none" stroke="black"/>
<text x="407" y="55" fill="black" font-size="11" font-family="Helvetica">
EdepNoQuench
</text>
<path d="M388,58h 114" fill="none" stroke="black"/>
<text x="393" y="69" fill="black" font-size="11" font-family="Helvetica">
Entries 
</text>
<text x="463" y="69" fill="black" font-size="11" font-family="Helvetica">
 88869
</text>
<text x="393" y="81" fill="black" font-size="11" font-family="Helvetica">
Mean  
</text>
<text x="463" y="81" fill="black" font-size="11" font-family="Helvetica">
  34.72
</text>
<text x="393" y="93" fill="black" font-size="11" font-family="Helvetica">
Integral 
</text>
<text x="460" y="94" fill="black" font-size="11" font-family="Helvetica">
 0.8887
</text>
<path d="M56,292h 454" fill="none" stroke="black"/>
<text x="404" y="313" fill="black" font-size="10" font-family="Helvetica">
Energy Deposit (MeV)
</text>
<path d="M57,284v 8" fill="none" stroke="black"/>
<path d="M74,288v 4" fill="none" stroke="black"/>
<path d="M90,288v 4" fill="none" stroke="black"/>
<path d="M107,288v 4" fill="none" stroke="black"/>
<path d="M124,288v 4" fill="none" stroke="black"/>
<path d="M140,284v 8" fill="none" stroke="black"/>
<path d="M157,288v 4" fill="none" stroke="black"/>
<path d="M174,288v 4" fill="none" stroke="black"/>
<path d="M190,288v 4" fill="none" stroke="black"/>
<path d="M207,288v 4" fill="none" stroke="black"/>
<path d="M224,284v 8" fill="none" stroke="black"/>
<path d="M240,288v 4" fill="none" stroke="black"/>
<path d="M257,288v 4" fill="none" stroke="black"/>
<path d="M274,288v 4" fill="none" stroke="black"/>
<path d="M290,288v 4" fill="none" stroke="black"/>
<path d="M307,284v 8" fill="none" stroke="black"/>
<path d="M324,288v 4" fill="none" stroke="black"/>
<path d="M340,288v 4" fill="none" stroke="black"/>
<path d="M357,288v 4" fill="none" stroke="black"/>
<path d="M374,288v 4" fill="none" stroke="black"/>
<path d="M390,284v 8" fill="none" stroke="black"/>
<path d="M407,288v 4" fill="none" stroke="black"/>
<path d="M424,288v 4" fill="none" stroke="black"/>
<path d="M440,288v 4" fill="none" stroke="black"/>
<path d="M457,288v 4" fill="none" stroke="black"/>
<path d="M474,284v 8" fill="none" stroke="black"/>
<path d="M57,284v 8" fill="none" stroke="black"/>
<path d="M474,284v 8" fill="none" stroke="black"/>
<path d="M490,288v 4" fill="none" stroke="black"/>
<path d="M507,288v 4" fill="none" stroke="black"/>
<text x="54" y="302" fill="black" font-size="10" font-family="Helvetica">
0
</text>
<text x="131" y="302" fill="black" font-size="10" font-family="Helvetica">
100
</text>
<text x="215" y="302" fill="black" font-size="10" font-family="Helvetica">
200
</text>
<text x="298" y="302" fill="black" font-size="10" font-family="Helvetica">
300
</text>
<text x="381" y="302" fill="black" font-size="10" font-family="Helvetica">
400
</text>
<text x="464" y="302" fill="black" font-size="10" font-family="Helvetica">
500
</text>
<path d="M56,292v -260" fill="none" stroke="black"/>
<path d="M63,292h -7" fill="none" stroke="black"/>
<path d="M63,287h -7" fill="none" stroke="black"/>
<path d="M63,284h -7" fill="none" stroke="black"/>
<path d="M63,280h -7" fill="none" stroke="black"/>
<path d="M63,278h -7" fill="none" stroke="black"/>
<path d="M70,275h -14" fill="none" stroke="black"/>
<text x="45" y="274" fill="black" font-size="7" font-family="Helvetica">
-5
</text>
<text x="33" y="280" fill="black" font-size="10" font-family="Helvetica">
10
</text>
<path d="M63,258h -7" fill="none" stroke="black"/>
<path d="M63,249h -7" fill="none" stroke="black"/>
<path d="M63,242h -7" fill="none" stroke="black"/>
<path d="M63,237h -7" fill="none" stroke="black"/>
<path d="M63,232h -7" fill="none" stroke="black"/>
<path d="M63,229h -7" fill="none" stroke="black"/>
<path d="M63,225h -7" fill="none" stroke="black"/>
<path d="M63,223h -7" fill="none" stroke="black"/>
<path d="M70,220h -14" fill="none" stroke="black"/>
<text x="45" y="219" fill="black" font-size="7" font-family="Helvetica">
-4
</text>
<text x="33" y="225" fill="black" font-size="10" font-family="Helvetica">
10
</text>
<path d="M63,204h -7" fill="none" stroke="black"/>
<path d="M63,194h -7" fill="none" stroke="black"/>
<path d="M63,187h -7" fill="none" stroke="black"/>
<path d="M63,182h -7" fill="none" stroke="black"/>
<path d="M63,177h -7" fill="none" stroke="black"/>
<path d="M63,174h -7" fill="none" stroke="black"/>
<path d="M63,171h -7" fill="none" stroke="black"/>
<path d="M63,168h -7" fill="none" stroke="black"/>
<path d="M70,165h -14" fill="none" stroke="black"/>
<text x="45" y="164" fill="black" font-size="7" font-family="Helvetica">
-3
</text>
<text x="33" y="170" fill="black" font-size="10" font-family="Helvetica">
10
</text>
<path d="M63,149h -7" fill="none" stroke="black"/>
<path d="M63,139h -7" fill="none" stroke="black"/>
<path d="M63,132h -7" fill="none" stroke="black"/>
<path d="M63,127h -7" fill="none" stroke="black"/>
<path d="M63,122h -7" fill="none" stroke="black"/>
<path d="M63,119h -7" fill="none" stroke="black"/>
<path d="M63,116h -7" fill="none" stroke="black"/>
<path d="M63,113h -7" fill="none" stroke="black"/>
<path d="M70,110h -14" fill="none" stroke="black"/>
<text x="45" y="110" fill="black" font-size="7" font-family="Helvetica">
-2
</text>
<text x="33" y="115" fill="black" font-size="10" font-family="Helvetica">
10
</text>
<path d="M63,94h -7" fill="none" stroke="black"/>
<path d="M63,84h -7" fill="none" stroke="black"/>
<path d="M63,77h -7" fill="none" stroke="black"/>
<path d="M63,72h -7" fill="none" stroke="black"/>
<path d="M63,68h -7" fill="none" stroke="black"/>
<path d="M63,64h -7" fill="none" stroke="black"/>
<path d="M63,61h -7" fill="none" stroke="black"/>
<path d="M63,58h -7" fill="none" stroke="black"/>
<path d="M70,55h -14" fill="none" stroke="black"/>
<text x="46" y="55" fill="black" font-size="7" font-family="Helvetica">
-1
</text>
<text x="34" y="60" fill="black" font-size="10" font-family="Helvetica">
10
</text>
<path d="M63,39h -7" fill="none" stroke="black"/>
<rect x="388" y="45" width="114" height="52" fill="white"/>
<path d="M388,97h 114" fill="none" stroke="black"/>
<path d="M502,97v -52" fill="none" stroke="black"/>
<path d="M502,45h -114" fill="none" stroke="black"/>
<path d="M388,45v 52" fill="none" stroke="black"/>
<text x="407" y="55" fill="black" font-size="11" font-family="Helvetica">
EdepNoQuench
</text>
<path d="M388,58h 114" fill="none" stroke="black"/>
<text x="393" y="69" fill="black" font-size="11" font-family="Helvetica">
Entries 
</text>
<text x="463" y="69" fill="black" font-size="11" font-family="Helvetica">
 88869
</text>
<text x="393" y="81" fill="black" font-size="11" font-family="Helvetica">
Mean  
</text>
<text x="463" y="81" fill="black" font-size="11" font-family="Helvetica">
  34.72
</text>
<text x="393" y="93" fill="black" font-size="11" font-family="Helvetica">
Integral 
</text>
<text x="460" y="94" fill="black" font-size="11" font-family="Helvetica">
 0.8887
</text></svg>
