<?xml version="1.0" standalone="no"?>
<svg width="567" height="324" viewBox="0 0 567 324" xmlns="http://www.w3.org/2000/svg">
<title>
/home/local1/NSRL13A/NSRL13A-build/EdepWater2GeVpeak.svg
</title>
<desc>
Creator: ROOT Version 5.34/09
CreationDate: Mon Apr 14 11:35:09 2014</desc>
<defs>
</defs>
<rect x="0" y="0" width="567" height="324" fill="white"/>
<rect x="56" y="32" width="454" height="260" fill="white"/>
<rect x="56" y="32" width="454" height="260" fill="none" stroke="black"/>
<rect x="56" y="32" width="454" height="260" fill="white"/>
<rect x="56" y="32" width="454" height="260" fill="none" stroke="black"/>
<path d="M56,291h 12v -1h 12v 1h 12v -1h 12v 1h 12v -1h 12v -1h 12v -32h 12v -118h 12v -95h 12v 7h 11v 53h 12v 58h 12v 42h 12v 30h 12v 19h 12v 13h 12v 8h 12v 6h 12v 3h 12v 2h 12v 1h 12v 1h 24v 1h 83v 1h 12v -1h 36v 1h 36" fill="none"
 stroke="#000099"/>
<rect x="388" y="45" width="114" height="52" fill="white"/>
<path d="M388,97h 114" fill="none" stroke="black"/>
<path d="M502,97v -52" fill="none" stroke="black"/>
<path d="M502,45h -114" fill="none" stroke="black"/>
<path d="M388,45v 52" fill="none" stroke="black"/>
<text x="407" y="55" fill="black" font-size="11" font-family="Helvetica">
EdepNoQuench
</text>
<path d="M388,58h 114" fill="none" stroke="black"/>
<text x="393" y="69" fill="black" font-size="11" font-family="Helvetica">
Entries 
</text>
<text x="463" y="69" fill="black" font-size="11" font-family="Helvetica">
 88869
</text>
<text x="393" y="81" fill="black" font-size="11" font-family="Helvetica">
Mean  
</text>
<text x="463" y="81" fill="black" font-size="11" font-family="Helvetica">
  27.04
</text>
<text x="393" y="93" fill="black" font-size="11" font-family="Helvetica">
Integral 
</text>
<text x="460" y="94" fill="black" font-size="11" font-family="Helvetica">
 0.7564
</text>
<path d="M56,292h 454" fill="none" stroke="black"/>
<text x="404" y="313" fill="black" font-size="10" font-family="Helvetica">
Energy Deposit (MeV)
</text>
<path d="M56,284v 8" fill="none" stroke="black"/>
<path d="M68,288v 4" fill="none" stroke="black"/>
<path d="M80,288v 4" fill="none" stroke="black"/>
<path d="M92,288v 4" fill="none" stroke="black"/>
<path d="M104,288v 4" fill="none" stroke="black"/>
<path d="M116,284v 8" fill="none" stroke="black"/>
<path d="M128,288v 4" fill="none" stroke="black"/>
<path d="M140,288v 4" fill="none" stroke="black"/>
<path d="M152,288v 4" fill="none" stroke="black"/>
<path d="M164,288v 4" fill="none" stroke="black"/>
<path d="M176,284v 8" fill="none" stroke="black"/>
<path d="M187,288v 4" fill="none" stroke="black"/>
<path d="M199,288v 4" fill="none" stroke="black"/>
<path d="M211,288v 4" fill="none" stroke="black"/>
<path d="M223,288v 4" fill="none" stroke="black"/>
<path d="M235,284v 8" fill="none" stroke="black"/>
<path d="M247,288v 4" fill="none" stroke="black"/>
<path d="M259,288v 4" fill="none" stroke="black"/>
<path d="M271,288v 4" fill="none" stroke="black"/>
<path d="M283,288v 4" fill="none" stroke="black"/>
<path d="M295,284v 8" fill="none" stroke="black"/>
<path d="M307,288v 4" fill="none" stroke="black"/>
<path d="M319,288v 4" fill="none" stroke="black"/>
<path d="M331,288v 4" fill="none" stroke="black"/>
<path d="M343,288v 4" fill="none" stroke="black"/>
<path d="M355,284v 8" fill="none" stroke="black"/>
<path d="M366,288v 4" fill="none" stroke="black"/>
<path d="M378,288v 4" fill="none" stroke="black"/>
<path d="M390,288v 4" fill="none" stroke="black"/>
<path d="M402,288v 4" fill="none" stroke="black"/>
<path d="M414,284v 8" fill="none" stroke="black"/>
<path d="M426,288v 4" fill="none" stroke="black"/>
<path d="M438,288v 4" fill="none" stroke="black"/>
<path d="M450,288v 4" fill="none" stroke="black"/>
<path d="M462,288v 4" fill="none" stroke="black"/>
<path d="M474,284v 8" fill="none" stroke="black"/>
<path d="M474,284v 8" fill="none" stroke="black"/>
<path d="M486,288v 4" fill="none" stroke="black"/>
<path d="M498,288v 4" fill="none" stroke="black"/>
<text x="49" y="302" fill="black" font-size="10" font-family="Helvetica">
15
</text>
<text x="109" y="302" fill="black" font-size="10" font-family="Helvetica">
20
</text>
<text x="169" y="302" fill="black" font-size="10" font-family="Helvetica">
25
</text>
<text x="229" y="302" fill="black" font-size="10" font-family="Helvetica">
30
</text>
<text x="288" y="302" fill="black" font-size="10" font-family="Helvetica">
35
</text>
<text x="348" y="302" fill="black" font-size="10" font-family="Helvetica">
40
</text>
<text x="407" y="302" fill="black" font-size="10" font-family="Helvetica">
45
</text>
<text x="467" y="302" fill="black" font-size="10" font-family="Helvetica">
50
</text>
<path d="M56,292v -260" fill="none" stroke="black"/>
<path d="M70,292h -14" fill="none" stroke="black"/>
<path d="M63,283h -7" fill="none" stroke="black"/>
<path d="M63,274h -7" fill="none" stroke="black"/>
<path d="M63,265h -7" fill="none" stroke="black"/>
<path d="M70,257h -14" fill="none" stroke="black"/>
<path d="M63,248h -7" fill="none" stroke="black"/>
<path d="M63,239h -7" fill="none" stroke="black"/>
<path d="M63,231h -7" fill="none" stroke="black"/>
<path d="M70,222h -14" fill="none" stroke="black"/>
<path d="M63,213h -7" fill="none" stroke="black"/>
<path d="M63,205h -7" fill="none" stroke="black"/>
<path d="M63,196h -7" fill="none" stroke="black"/>
<path d="M70,187h -14" fill="none" stroke="black"/>
<path d="M63,179h -7" fill="none" stroke="black"/>
<path d="M63,170h -7" fill="none" stroke="black"/>
<path d="M63,161h -7" fill="none" stroke="black"/>
<path d="M70,152h -14" fill="none" stroke="black"/>
<path d="M63,144h -7" fill="none" stroke="black"/>
<path d="M63,135h -7" fill="none" stroke="black"/>
<path d="M63,126h -7" fill="none" stroke="black"/>
<path d="M70,118h -14" fill="none" stroke="black"/>
<path d="M63,109h -7" fill="none" stroke="black"/>
<path d="M63,100h -7" fill="none" stroke="black"/>
<path d="M63,92h -7" fill="none" stroke="black"/>
<path d="M70,83h -14" fill="none" stroke="black"/>
<path d="M63,74h -7" fill="none" stroke="black"/>
<path d="M63,65h -7" fill="none" stroke="black"/>
<path d="M63,57h -7" fill="none" stroke="black"/>
<path d="M70,48h -14" fill="none" stroke="black"/>
<path d="M70,48h -14" fill="none" stroke="black"/>
<path d="M63,39h -7" fill="none" stroke="black"/>
<text x="48" y="295" fill="black" font-size="10" font-family="Helvetica">
0
</text>
<text x="32" y="261" fill="black" font-size="10" font-family="Helvetica">
0.02
</text>
<text x="32" y="226" fill="black" font-size="10" font-family="Helvetica">
0.04
</text>
<text x="32" y="192" fill="black" font-size="10" font-family="Helvetica">
0.06
</text>
<text x="32" y="157" fill="black" font-size="10" font-family="Helvetica">
0.08
</text>
<text x="40" y="122" fill="black" font-size="10" font-family="Helvetica">
0.1
</text>
<text x="32" y="87" fill="black" font-size="10" font-family="Helvetica">
0.12
</text>
<text x="32" y="52" fill="black" font-size="10" font-family="Helvetica">
0.14
</text>
<rect x="388" y="45" width="114" height="52" fill="white"/>
<path d="M388,97h 114" fill="none" stroke="black"/>
<path d="M502,97v -52" fill="none" stroke="black"/>
<path d="M502,45h -114" fill="none" stroke="black"/>
<path d="M388,45v 52" fill="none" stroke="black"/>
<text x="407" y="55" fill="black" font-size="11" font-family="Helvetica">
EdepNoQuench
</text>
<path d="M388,58h 114" fill="none" stroke="black"/>
<text x="393" y="69" fill="black" font-size="11" font-family="Helvetica">
Entries 
</text>
<text x="463" y="69" fill="black" font-size="11" font-family="Helvetica">
 88869
</text>
<text x="393" y="81" fill="black" font-size="11" font-family="Helvetica">
Mean  
</text>
<text x="463" y="81" fill="black" font-size="11" font-family="Helvetica">
  27.04
</text>
<text x="393" y="93" fill="black" font-size="11" font-family="Helvetica">
Integral 
</text>
<text x="460" y="94" fill="black" font-size="11" font-family="Helvetica">
 0.7564
</text></svg>
